<svg height="512pt" viewBox="0 -128 512.00817 512" width="512pt" xmlns="http://www.w3.org/2000/svg"><path d="m175.289062 209.683594-69.757812-139.734375c-1.8125-3.628907-5.503906-5.910157-9.535156-5.910157-4.035156 0-7.722656 2.28125-9.539063 5.886719l-85.332031 170.667969c-1.8125 3.648438-1.40625 8 1.066406 11.242188 2.027344 2.6875 5.183594 4.203124 8.46875 4.203124.683594 0 1.386719-.0625 2.089844-.214843l155.09375-30.929688c3.265625-.640625 6.039062-2.773437 7.511719-5.78125 1.429687-2.96875 1.40625-6.464843-.066407-9.429687zm0 0" fill="#64b5f6"/><path d="m510.863281 176.59375-85.332031-170.667969c-2.175781-4.308593-6.976562-6.695312-11.628906-5.695312l-320 64c-3.261719.664062-6.035156 2.796875-7.488282 5.78125-1.46875 2.988281-1.449218 6.484375.042969 9.453125l85.355469 170.707031c1.835938 3.648437 5.527344 5.867187 9.515625 5.867187.683594 0 1.386719-.0625 2.089844-.214843l320-64c3.265625-.636719 6.039062-2.773438 7.511719-5.78125 1.46875-3.007813 1.425781-6.460938-.066407-9.449219zm0 0" fill="#2196f3"/><path d="m10.660156 256.039062c-1.597656 0-3.21875-.363281-4.757812-1.128906-5.269532-2.648437-7.402344-9.046875-4.777344-14.316406l85.269531-170.558594c.128907-.277344.277344-.535156.449219-.789062 0-.023438 0-.023438 0-.023438s0 0 0-.019531c.277344-.449219.597656-.898437.9375-1.300781l.019531-.023438c1.367188-1.640625 3.246094-2.902344 5.441407-3.476562.234374-.0625.46875-.128906.726562-.171875l319.933594-63.976563c4.738281-1.023437 9.472656 1.363282 11.628906 5.695313l85.332031 170.667969c1.492188 2.984374 1.492188 6.484374.042969 9.449218s-4.222656 5.121094-7.488281 5.78125l-320 64c-4.757813.980469-9.492188-1.386718-11.625-5.695312l-75.796875-151.59375-75.800782 151.570312c-1.875 3.734375-5.628906 5.910156-9.535156 5.910156zm101.121094-173.609374 75.457031 150.867187 298.324219-59.667969-75.457031-150.871094zm0 0"/><path d="m181.328125 128.039062c-4.972656 0-9.429687-3.5-10.453125-8.574218-1.152344-5.78125 2.601562-11.394532 8.363281-12.546875l213.332031-42.664063c5.824219-1.21875 11.414063 2.582032 12.542969 8.382813 1.152344 5.78125-2.601562 11.390625-8.363281 12.542969l-213.332031 42.667968c-.703125.128906-1.40625.191406-2.089844.191406zm0 0"/><path d="m202.660156 170.707031c-4.96875 0-9.429687-3.5-10.453125-8.578125-1.152343-5.78125 2.601563-11.390625 8.363281-12.542968l106.667969-21.332032c5.824219-1.175781 11.414063 2.582032 12.542969 8.382813 1.152344 5.78125-2.601562 11.390625-8.363281 12.542969l-106.667969 21.335937c-.703125.125-1.40625.191406-2.089844.191406zm0 0"/><path d="m10.660156 256.039062c-4.96875 0-9.429687-3.5-10.453125-8.574218-1.152343-5.78125 2.601563-11.394532 8.363281-12.546875l155.15625-31.015625c5.867188-1.175782 11.414063 2.578125 12.546876 8.382812 1.148437 5.78125-2.605469 11.390625-8.363282 12.542969l-155.160156 30.996094c-.703125.152343-1.40625.214843-2.089844.214843zm0 0"/></svg>