<svg height="448pt" viewBox="0 -8 448 448" width="448pt" xmlns="http://www.w3.org/2000/svg"><path d="m32 368h208v40h-208zm0 0" fill="#dbdbdb"/><path d="m16 24h336c8.835938 0 16 7.164062 16 16v336h-368v-336c0-8.835938 7.164062-16 16-16zm0 0" fill="#ebebeb"/><path d="m16 24h336c8.835938 0 16 7.164062 16 16v48h-368v-48c0-8.835938 7.164062-16 16-16zm0 0" fill="#e06661"/><g fill="#cbcbcb"><path d="m80 152c0 8.835938-7.164062 16-16 16s-16-7.164062-16-16 7.164062-16 16-16 16 7.164062 16 16zm0 0"/><path d="m160 152c0 8.835938-7.164062 16-16 16s-16-7.164062-16-16 7.164062-16 16-16 16 7.164062 16 16zm0 0"/><path d="m240 152c0 8.835938-7.164062 16-16 16s-16-7.164062-16-16 7.164062-16 16-16 16 7.164062 16 16zm0 0"/><path d="m80 216c0 8.835938-7.164062 16-16 16s-16-7.164062-16-16 7.164062-16 16-16 16 7.164062 16 16zm0 0"/></g><path d="m160 216c0 8.835938-7.164062 16-16 16s-16-7.164062-16-16 7.164062-16 16-16 16 7.164062 16 16zm0 0" fill="#f9adb1"/><path d="m80 280c0 8.835938-7.164062 16-16 16s-16-7.164062-16-16 7.164062-16 16-16 16 7.164062 16 16zm0 0" fill="#cbcbcb"/><path d="m160 280c0 8.835938-7.164062 16-16 16s-16-7.164062-16-16 7.164062-16 16-16 16 7.164062 16 16zm0 0" fill="#cbcbcb"/><path d="m448 304c0 70.691406-57.308594 128-128 128s-128-57.308594-128-128 57.308594-128 128-128 128 57.308594 128 128zm0 0" fill="#5d9aa4"/><path d="m416 304c0 53.019531-42.980469 96-96 96s-96-42.980469-96-96 42.980469-96 96-96 96 42.980469 96 96zm0 0" fill="#f9f9f9"/><path d="m320 320c-.386719.003906-.769531-.027344-1.152344-.089844-2.242187-.324218-4.242187-1.585937-5.503906-3.46875l-16-24c-2.453125-3.675781-1.460938-8.644531 2.214844-11.097656 3.675781-2.453125 8.644531-1.460938 11.097656 2.214844l11.0625 16.601562 41.160156-34.3125c3.398438-2.828125 8.445313-2.367187 11.273438 1.03125 2.828125 3.398438 2.367187 8.445313-1.03125 11.273438l-48 40c-1.4375 1.195312-3.25 1.847656-5.121094 1.847656zm0 0" fill="#fbb540"/><path d="m320 368c-4.417969 0-8 3.582031-8 8v23.601562c2.648438.214844 5.296875.398438 8 .398438s5.351562-.183594 8-.398438v-23.601562c0-4.417969-3.582031-8-8-8zm0 0" fill="#dbdbdb"/><path d="m320 208c-2.703125 0-5.351562.183594-8 .398438v23.601562c0 4.417969 3.582031 8 8 8s8-3.582031 8-8v-23.601562c-2.648438-.214844-5.296875-.398438-8-.398438zm0 0" fill="#dbdbdb"/><path d="m64 0c8.835938 0 16 7.164062 16 16v32h-32v-32c0-8.835938 7.164062-16 16-16zm0 0" fill="#c3c3c3"/><path d="m144 0c8.835938 0 16 7.164062 16 16v32h-32v-32c0-8.835938 7.164062-16 16-16zm0 0" fill="#c3c3c3"/><path d="m224 0c8.835938 0 16 7.164062 16 16v32h-32v-32c0-8.835938 7.164062-16 16-16zm0 0" fill="#c3c3c3"/><path d="m304 0c8.835938 0 16 7.164062 16 16v32h-32v-32c0-8.835938 7.164062-16 16-16zm0 0" fill="#c3c3c3"/><path d="m248 320c4.417969 0 8-3.582031 8-8s-3.582031-8-8-8h-24c.03125 5.363281.511719 10.714844 1.441406 16zm0 0" fill="#dbdbdb"/><path d="m384 312c0 4.417969 3.582031 8 8 8h22.558594c.929687-5.285156 1.410156-10.636719 1.441406-16h-24c-4.417969 0-8 3.582031-8 8zm0 0" fill="#dbdbdb"/></svg>