<?xml version="1.0"?>
<svg xmlns="http://www.w3.org/2000/svg" height="512px" viewBox="-4 0 511 511.85508" width="512px" class=""><g><path d="m477.867188 432.300781-409.5 79.199219c-8.601563 1.300781-17.300782-1-24.199219-6.398438-6.902344-5.402343-11.199219-13.203124-12.101563-21.902343l-31-196.597657c-3.5-18 7.699219-35.703124 25.5-40.203124l409.5-79.199219c8.601563-1.300781 17.300782 1 24.199219 6.402343 6.902344 5.296876 11.203125 13.199219 12.101563 21.898438l31 196.601562c3.5 18.097657-7.699219 35.699219-25.5 40.199219zm0 0" fill="#e64c3c" data-original="#E64C3C" class="" style="fill:#00BFFF" data-old_color="#004CFF"/><g fill="#fff"><path d="m81.765625 420.199219c-3.796875 0-7.5-.597657-11-1.699219-5.699219-1.898438-10.898437-4.898438-15.199219-8.898438-4.597656-4.203124-8.300781-9.101562-11.199218-14.601562-3.101563-5.898438-5.101563-12.199219-6.101563-18.800781-1.097656-6.597657-1.097656-13.300781 0-19.898438 1-6.199219 3-12.199219 5.902344-17.699219 2.800781-5.300781 6.699219-10.101562 11.398437-13.902343 4.699219-3.800781 10.300782-6.5 16.300782-7.597657 5.898437-1.101562 12.101562-.800781 17.800781 1.097657 4.597656 1.5 7.097656 6.300781 5.597656 10.902343-1.5 4.597657-6.296875 7.097657-10.898437 5.597657-3-1-6.199219-1.199219-9.199219-.597657-3.199219.597657-6.199219 2.097657-8.699219 4.097657-2.902344 2.402343-5.203125 5.300781-6.902344 8.601562-2 3.800781-3.398437 8-4.097656 12.199219-.800781 4.800781-.800781 9.601562 0 14.398438.699219 4.703124 2.199219 9.203124 4.296875 13.5 1.902344 3.703124 4.402344 7 7.5 9.800781 2.5 2.402343 5.601563 4.199219 8.902344 5.300781 3 1 6.199219 1.199219 9.199219.601562 3.199218-.601562 6.199218-2 8.699218-4.101562 2.402344-1.898438 5.699219-2.398438 8.601563-1.300781 2.898437 1.101562 5 3.699219 5.398437 6.800781.5 3.101562-.699218 6.101562-3.097656 8.101562-4.703125 3.796876-10.300781 6.398438-16.203125 7.597657-2.5.199219-4.796875.5-7 .5zm0 0" data-original="#000000" class=""/><path d="m130.765625 411.199219c-4.296875 0-7.898437-3.097657-8.597656-7.300781l-13.5-85.5c-.601563-3.097657.5-6.296876 3-8.398438 2.398437-2 5.800781-2.601562 8.800781-1.398438 3 1.199219 5 3.898438 5.398438 7l12.101562 76.597657 29.796875-5.800781c4.5-.5 8.703125 2.5 9.601563 7 .898437 4.5-1.898438 8.902343-6.300782 10l-38.597656 7.5c-.601562.203124-1.203125.300781-1.703125.300781zm0 0" data-original="#000000" class=""/><path d="m211.46875 395.199219c-7.203125-.097657-14.300781-2.398438-20.101562-6.597657-12-9.203124-19.898438-22.800781-21.800782-37.902343-4.5-28.597657 9.101563-54.300781 31.101563-58.597657 9.097656-1.601562 18.5.597657 26 6.097657 12.097656 9.199219 19.898437 22.800781 21.800781 37.902343 4.5 28.597657-9.101562 54.296876-31.101562 58.597657-2 .300781-3.898438.5-5.898438.5zm-4.902344-86.398438c-.898437 0-1.800781.097657-2.699218.300781-12.300782 2.398438-20.199219 20.199219-17.199219 38.796876 1.199219 10.402343 6.5 19.800781 14.597656 26.402343 3.703125 2.800781 8.300781 3.898438 12.800781 3.199219 12.300782-2.398438 20.199219-20.199219 17.199219-38.800781-1.199219-10.398438-6.5-19.800781-14.597656-26.398438-2.902344-2.101562-6.402344-3.300781-10.101563-3.5zm0 0" data-original="#000000" class=""/><path d="m293.46875 379.398438c-2.203125 0-4.402344-.296876-6.5-.796876-3.703125-.902343-7.101562-2.601562-10-5-3-2.300781-5.5-5.203124-7.402344-8.5-2.398437-4.101562-1-9.5 3.101563-11.902343 4.097656-2.398438 9.5-1 11.898437 3.101562.800782 1.398438 1.800782 2.5 3 3.5 1.101563.898438 2.402344 1.5 3.699219 1.800781 1.300781.296876 2.703125.398438 4 .097657 1.402344-.300781 2.703125-.800781 3.800781-1.699219 1.300782-.898438 2.300782-2.101562 3.199219-3.398438.902344-1.402343 1.5-3 1.902344-4.703124.398437-1.796876.398437-3.699219.097656-5.5-.296875-1.796876-.898437-3.5-1.699219-5-.800781-1.398438-1.800781-2.5-3-3.5-1.097656-.898438-2.300781-1.5-3.699218-1.796876-1.300782-.300781-2.699219-.402343-4-.101562-3.800782.800781-7.800782.601562-11.601563-.300781-3.597656-.898438-7.097656-2.597657-10-4.898438-3-2.300781-5.5-5.199219-7.398437-8.5-2-3.402343-3.300782-7.199219-3.898438-11-.601562-3.902343-.5-7.902343.296875-11.699219.800781-3.703124 2.203125-7.300781 4.203125-10.5 2-3.203124 4.597656-6 7.699219-8.203124 3.199219-2.296876 6.800781-3.796876 10.597656-4.597657 3.800781-.699219 7.800781-.601562 11.601563.300781 3.699218.898438 7.101562 2.597657 10 4.898438 3 2.300781 5.5 5.199219 7.398437 8.5 1.601563 2.699219 1.703125 6 .203125 8.800781-1.5 2.699219-4.402344 4.398438-7.601562 4.398438-3.101563 0-6-1.699219-7.601563-4.398438-.796875-1.402343-1.796875-2.601562-3-3.5-1.097656-.902343-2.296875-1.5-3.699219-1.800781-1.300781-.300781-2.699218-.398438-4-.101562-1.398437.300781-2.699218.800781-3.800781 1.703124-1.296875.898438-2.296875 2-3.097656 3.296876-.902344 1.5-1.601563 3.101562-1.902344 4.703124-.398437 1.796876-.398437 3.699219-.097656 5.5.300781 1.796876.898437 3.5 1.699219 5 .800781 1.296876 1.800781 2.5 3 3.5 1.101562.898438 2.398437 1.5 3.699218 1.796876 1.300782.300781 2.699219.402343 4 .101562 3.800782-.699219 7.800782-.601562 11.601563.300781 3.597656.898438 7.097656 2.597657 10 4.898438 3 2.300781 5.5 5.199219 7.398437 8.5 2 3.402343 3.300782 7.199219 3.902344 11 .597656 3.902343.5 7.902343-.300781 11.699219-.800781 3.703124-2.199219 7.300781-4.199219 10.5-2 3.203124-4.601562 6-7.703125 8.203124-3.199219 2.296876-6.796875 3.898438-10.597656 4.597657-1.800781.5-3.5.699219-5.199219.699219zm0 0" data-original="#000000" class=""/><path d="m347.066406 369.398438c-4.300781 0-7.898437-3.097657-8.597656-7.296876l-13.5-85.5c-.703125-4.601562 2.296875-9 6.898438-9.902343l38.601562-7.5c4.699219-.898438 9.296875 2.199219 10.199219 6.902343.898437 4.699219-2.199219 9.296876-6.902344 10.199219l-30.398437 5.898438 10.800781 68.300781 29.699219-5.800781c4.699218-.898438 9.300781 2.199219 10.199218 6.902343.902344 4.699219-2.199218 9.296876-6.898437 10.199219l-38.601563 7.5c-.398437 0-.898437.097657-1.5.097657zm0 0" data-original="#000000" class=""/><path d="m340.367188 326.601562c-4.5 0-8.199219-3.402343-8.601563-7.902343-.398437-4.5 2.601563-8.5 7-9.300781l23.203125-4.5c4.699219-.898438 9.296875 2.203124 10.199219 6.902343.898437 4.699219-2.199219 9.300781-6.902344 10.199219l-23.199219 4.5c-.597656.101562-1.199218.101562-1.699218.101562zm0 0" data-original="#000000" class=""/><path d="m416.667969 355.898438c-4.300781 0-7.902344-3.097657-8.601563-7.296876l-13.5-85.5c-.699218-4.101562 1.699219-8.101562 5.601563-9.5 13.898437-4.800781 29.199219-3.800781 42.300781 2.796876 12.898438 8.5 21.097656 22.402343 22.296875 37.800781 3.5 15.199219 0 31.199219-9.398437 43.601562-10 10.800781-23.800782 17.300781-38.5 18.097657zm-3.699219-87.597657 10.898438 69c7-1.601562 13.398437-5.300781 18.199218-10.699219 6.101563-8.601562 8.101563-19.5 5.601563-29.800781-.601563-10.199219-5.699219-19.5-14-25.5-6.402344-3.199219-13.699219-4.300781-20.699219-3zm0 0" data-original="#000000" class=""/></g><path d="m434.367188 216.898438c-2.5 0-4.898438-1.097657-6.5-3l-157.300782-180.398438c-1.398437-1.601562-2.097656-3.601562-2.097656-5.699219 0-4.800781 3.898438-8.699219 8.699219-8.699219 2.898437 0 5.597656 1.5 7.300781 3.898438l156.5 179.601562c2.199219 2.597657 2.796875 6.199219 1.398438 9.296876-1.5 3.101562-4.601563 5-8 5zm0 0" fill="#cb9080" data-original="#CB9080" class=""/><path d="m61.265625 286.398438c-3.199219 0-6.097656-1.796876-7.699219-4.597657-1.5-2.800781-1.300781-6.300781.5-8.902343l165-244.699219c2.699219-3.898438 8-4.898438 12-2.199219 3.902344 2.601562 5 8 2.402344 11.898438l-165 244.703124c-1.601562 2.296876-4.300781 3.796876-7.203125 3.796876zm0 0" fill="#cb9080" data-original="#CB9080" class=""/><path d="m252.167969 69.398438c-19.199219 0-34.699219-15.5-34.699219-34.699219s15.5-34.699219 34.699219-34.699219 34.699219 15.5 34.699219 34.699219c0 9.199219-3.699219 18-10.199219 24.5-6.5 6.601562-15.300781 10.199219-24.5 10.199219zm0 0" fill="#a5a5a4" data-original="#A5A5A4" class="active-path" style="fill:#B7B7B0" data-old_color="#8A8A85"/></g> </svg>
