<svg height="512pt" viewBox="0 0 512 512" width="512pt" xmlns="http://www.w3.org/2000/svg"><path d="m512 256c0 141.386719-114.613281 256-256 256s-256-114.613281-256-256 114.613281-256 256-256 256 114.613281 256 256zm0 0" fill="#ffe662"/><path d="m148.378906 405.703125h224.652344v58.511719h-224.652344zm0 0" fill="#30383d"/><path d="m505.054688 315.472656c-8.757813 36.824219-25.476563 70.5625-48.222657 99.296875-133.894531 5.015625-267.777343 5.015625-401.660156 0-22.757813-28.742187-39.472656-62.492187-48.230469-99.328125-1.398437-37.449218-1.890625-74.898437-1.464844-112.34375.503907-44.984375 2.320313-89.96875 5.445313-134.949218.910156-13.105469 11.566406-23.386719 24.691406-23.929688 26.855469-1.105469 53.71875-2.007812 80.570313-2.707031 93.21875-2.421875 186.421875-2.421875 279.636718 0 26.855469.699219 53.71875 1.601562 80.574219 2.707031 13.113281.542969 23.769531 10.824219 24.679688 23.929688 3.125 44.980468 4.941406 89.964843 5.453125 134.949218.417968 37.457032-.074219 74.917969-1.472656 112.375zm0 0" fill="#444f56"/><path d="m468.023438 80.800781v296.625c0 2.339844-1.902344 4.242188-4.242188 4.242188h-415.566406c-2.332032 0-4.230469-1.902344-4.230469-4.242188v-296.625c0-2.339843 1.898437-4.242187 4.230469-4.242187h415.566406c2.339844 0 4.242188 1.902344 4.242188 4.242187zm0 0" fill="#f2f2f2"/><path d="m410.019531 460.507812c-20.53125 15.484376-43.476562 27.949219-68.15625 36.738282h-171.71875c-24.679687-8.789063-47.628906-21.253906-68.160156-36.738282 1.085937-1.902343 2.414063-3.636718 3.949219-5.171874 4.453125-4.453126 10.585937-7.199219 17.367187-7.199219h265.40625c9.121094 0 17.082031 4.980469 21.3125 12.371093zm0 0" fill="#444f56"/><path d="m362.011719 93.277344h-318.027344v32.546875c0 29.273437 23.730469 53.003906 53.003906 53.003906 29.273438 0 53.003907-23.730469 53.003907-53.003906 0 29.273437 23.730468 53.003906 53.003906 53.003906 29.273437 0 53.007812-23.730469 53.007812-53.003906 0 29.273437 23.730469 53.003906 53.003906 53.003906 29.273438 0 53.007813-23.730469 53.007813-53.003906 0 29.273437 23.730469 53.003906 53.003906 53.003906 29.273438 0 53.003907-23.730469 53.003907-53.003906v-32.546875zm0 0" fill="#d8d8d8"/><path d="m96.988281 156.886719c-29.273437 0-53.003906-23.730469-53.003906-53.003907v-32.546874h106.007813v32.542968c0 29.277344-23.730469 53.007813-53.003907 53.007813zm0 0" fill="#f26065"/><path d="m203 156.886719c-29.273438 0-53.007812-23.730469-53.007812-53.003907v-32.546874h106.011718v32.542968c0 29.277344-23.730468 53.007813-53.003906 53.007813zm0 0" fill="#349cdd"/><path d="m309.007812 156.886719c-29.273437 0-53.003906-23.730469-53.003906-53.003907v-32.546874h106.007813v32.542968c0 29.277344-23.730469 53.007813-53.003907 53.007813zm0 0" fill="#f26065"/><path d="m415.019531 156.886719c-29.273437 0-53.007812-23.730469-53.007812-53.003907v-32.546874h106.011719v32.542968c0 29.277344-23.730469 53.007813-53.003907 53.007813zm0 0" fill="#349cdd"/><g fill="#f26065"><path d="m266.839844 243.496094h-32.492188l-28.382812-52.507813c-2.742188-5.074219-9.085938-6.96875-14.160156-4.222656-5.078126 2.742187-6.96875 9.082031-4.222657 14.160156l23.011719 42.570313h-78.992188l23.011719-42.570313c2.742188-5.078125.851563-11.417969-4.226562-14.160156-5.074219-2.742187-11.414063-.855469-14.160157 4.222656l-28.382812 52.507813h-32.492188c-5.769531 0-10.449218 4.679687-10.449218 10.449218 0 5.769532 4.679687 10.449219 10.449218 10.449219h2.574219l16.515625 86.492188c.941406 4.925781 5.25 8.492187 10.261719 8.492187h132.785156c5.015625 0 9.320313-3.566406 10.261719-8.492187l16.515625-86.492188h2.574219c5.769531 0 10.449218-4.679687 10.449218-10.449219 0-5.769531-4.679687-10.449218-10.449218-10.449218zm-37.996094 94.984375h-115.496094l-14.148437-74.085938h14.832031c.011719 0 .019531.003907.03125.003907s.023438-.003907.03125-.003907h114c.011719 0 .023438.003907.03125.003907.011719 0 .023438-.003907.035156-.003907h14.828125zm0 0"/><path d="m171.097656 272.179688c-5.773437 0-10.449218 4.679687-10.449218 10.449218v37.617188c0 5.769531 4.675781 10.449218 10.449218 10.449218 5.769532 0 10.445313-4.679687 10.445313-10.449218v-37.617188c0-5.769531-4.675781-10.449218-10.445313-10.449218zm0 0"/><path d="m139.382812 281.191406c-.792968-5.714844-6.070312-9.707031-11.789062-8.910156-5.714844.792969-9.703125 6.070312-8.910156 11.785156l5.226562 37.617188c.726563 5.226562 5.203125 9.011718 10.335938 9.011718.480468 0 .964844-.035156 1.453125-.101562 5.714843-.792969 9.703125-6.074219 8.910156-11.789062zm0 0"/><path d="m214.597656 272.28125c-5.722656-.796875-10.996094 3.195312-11.789062 8.910156l-5.226563 37.617188c-.792969 5.714844 3.195313 10.992187 8.914063 11.785156.488281.070312.972656.101562 1.449218.101562 5.132813 0 9.609376-3.785156 10.339844-9.011718l5.222656-37.613282c.792969-5.71875-3.195312-10.996093-8.910156-11.789062zm0 0"/></g><path d="m307.761719 226.257812h136.351562v22.273438h-136.351562zm0 0" fill="#444f56"/><path d="m307.761719 274.679688h136.351562v22.269531h-136.351562zm0 0" fill="#444f56"/><path d="m307.761719 323.101562h136.351562v22.269532h-136.351562zm0 0" fill="#444f56"/></svg>