<svg height="464pt" viewBox="0 0 464 464" width="464pt" xmlns="http://www.w3.org/2000/svg"><path d="m112 48h240v352h-240zm0 0" fill="#87ced9"/><path d="m352 192-208 208h208zm0 0" fill="#71c4d1"/><path d="m112 432c0 17.671875 14.328125 32 32 32h176c17.671875 0 32-14.328125 32-32v-32h-240zm0 0" fill="#d6d9db"/><path d="m320 0h-176c-17.671875 0-32 14.328125-32 32v16h240v-16c0-17.671875-14.328125-32-32-32zm0 0" fill="#d6d9db"/><path d="m224 424h16v16h-16zm0 0" fill="#a0a1a3"/><path d="m256 48h48v24c0 13.253906-10.746094 24-24 24s-24-10.746094-24-24zm0 0" fill="#ffc24f"/><path d="m160 48h48v24c0 13.253906-10.746094 24-24 24s-24-10.746094-24-24zm0 0" fill="#ffc24f"/><g fill="#e3584b"><path d="m208 48h48v24c0 13.253906-10.746094 24-24 24s-24-10.746094-24-24zm0 0"/><path d="m304 48h48v24c0 13.253906-10.746094 24-24 24s-24-10.746094-24-24zm0 0"/><path d="m112 48h48v24c0 13.253906-10.746094 24-24 24s-24-10.746094-24-24zm0 0"/><path d="m272 208h144v160h-144zm0 0"/></g><path d="m416 208h48v160h-48zm0 0" fill="#d64740"/><path d="m440 336-24 32h48zm0 0" fill="#e3584b"/><path d="m384 232h-16v-48c0-13.253906-10.746094-24-24-24s-24 10.746094-24 24v48h-16v-48c0-22.089844 17.910156-40 40-40s40 17.910156 40 40zm0 0" fill="#4d6394"/><path d="m416 208h-16v-24c0-13.253906-10.746094-24-24-24s-24 10.746094-24 24v24h-16v-24c0-22.089844 17.910156-40 40-40s40 17.910156 40 40zm0 0" fill="#4d6394"/><path d="m24 136h176c13.253906 0 24 10.746094 24 24v96c0 13.253906-10.746094 24-24 24h-176c-13.253906 0-24-10.746094-24-24v-96c0-13.253906 10.746094-24 24-24zm0 0" fill="#4398d1"/><path d="m200 136h-9.335938l-144 144h153.335938c13.253906 0 24-10.746094 24-24v-96c0-13.253906-10.746094-24-24-24zm0 0" fill="#3e8cc7"/><path d="m160 232c0 8.835938-7.164062 16-16 16s-16-7.164062-16-16 7.164062-16 16-16 16 7.164062 16 16zm0 0" fill="#e3584b"/><path d="m192 232c0 8.835938-7.164062 16-16 16s-16-7.164062-16-16 7.164062-16 16-16 16 7.164062 16 16zm0 0" fill="#ffc24f"/><path d="m184 160h16v16h-16zm0 0" fill="#87ced9"/><path d="m152 160h16v16h-16zm0 0" fill="#87ced9"/><path d="m32 168h32v32h-32zm0 0" fill="#ffc24f"/><path d="m24 224h16v16h-16zm0 0" fill="#87ced9"/><path d="m56 224h16v16h-16zm0 0" fill="#87ced9"/><path d="m88 224h16v16h-16zm0 0" fill="#87ced9"/><path d="m240 272v-96c-.023438-10.570312-6.984375-19.875-17.121094-22.878906.710938 2.226562 1.085938 4.542968 1.121094 6.878906v96c0 13.253906-10.746094 24-24 24h-88v16h104c13.253906 0 24-10.746094 24-24zm0 0" fill="#71c4d1"/></svg>