<?xml version="1.0"?>
<svg xmlns="http://www.w3.org/2000/svg" viewBox="0 -54 512 512" width="512px" height="512px" class=""><g><path d="m448 362v-216c0-17.671875-14.328125-32-32-32h-374c-17.671875 0-32 14.328125-32 32v216c0 17.671875 14.328125 32 32 32h374c17.671875 0 32-14.328125 32-32zm0 0" fill="#ffb954" data-original="#FFB954" class="" style="fill:#CAE7EF" data-old_color="#A3D1DF"/><path d="m42 394h374c8.566406 0 16.339844-3.371094 22.082031-8.851562l-149.1875-149.230469-124.800781 3.9375-144.730469 144.761719c5.792969 5.796874 13.796875 9.382812 22.636719 9.382812zm0 0" fill="#feda9b" data-original="#FEDA9B" class="" style="fill:#92C1B8" data-old_color="#82DCCA"/><path d="m229 272.601562 208.0625-150.679687c-5.628906-4.929687-12.992188-7.921875-21.0625-7.921875h-374c-8.070312 0-15.433594 2.992188-21.0625 7.921875zm0 0" fill="#fff" data-original="#FFF" class=""/><path d="m502 82c0 39.765625-32.234375 72-72 72s-72-32.234375-72-72 32.234375-72 72-72 72 32.234375 72 72zm0 0" fill="#a0e557" data-original="#A0E557" class="active-path" style="fill:#EDAF96" data-old_color="#C38B75"/><path d="m312 384c-2.628906 0-5.210938 1.070312-7.070312 2.929688-1.859376 1.859374-2.929688 4.441406-2.929688 7.070312s1.070312 5.210938 2.929688 7.070312c1.859374 1.859376 4.441406 2.929688 7.070312 2.929688s5.210938-1.070312 7.070312-2.929688c1.859376-1.859374 2.929688-4.441406 2.929688-7.070312s-1.070312-5.210938-2.929688-7.070312c-1.859374-1.859376-4.441406-2.929688-7.070312-2.929688zm0 0" data-original="#000000" class="" style="fill:#000000"/><path d="m512 82c0-45.214844-36.785156-82-82-82s-82 36.785156-82 82c0 7.621094 1.066406 14.992188 3.023438 22h-309.023438c-10.304688 0-19.75 3.738281-27.066406 9.921875-.328125.242187-.636719.519531-.9375.808594-8.585938 7.699219-13.996094 18.863281-13.996094 31.269531v216c0 23.160156 18.839844 42 42 42h225.574219c5.523437 0 10-4.476562 10-10s-4.476563-10-10-10h-225.574219c-2.367188 0-4.648438-.378906-6.785156-1.074219l135.949218-136.003906c.761719-.761719 1.371094-1.617187 1.835938-2.53125l50.132812 36.308594c1.75 1.269531 3.808594 1.902343 5.867188 1.902343 2.054688 0 4.113281-.632812 5.863281-1.902343l49.105469-35.5625 137.984375 138.039062c-1.894531.53125-3.890625.824219-5.953125.824219h-58c-5.523438 0-10 4.476562-10 10s4.476562 10 10 10h58c23.160156 0 42-18.839844 42-42v-202.929688c31.46875-11.464843 54-41.683593 54-77.070312zm-490.925781 286.78125c-.695313-2.136719-1.074219-4.414062-1.074219-6.78125v-216c0-3.792969.964844-7.363281 2.660156-10.484375l134.339844 97.289063zm207.925781-108.527344-188.105469-136.226562c.367188-.015625.734375-.027344 1.105469-.027344h317.605469c5.890625 9.835938 13.785156 18.324219 23.109375 24.933594zm209 101.746094c0 2.664062-.476562 5.21875-1.347656 7.585938l-136.277344-136.328126 102.179688-73.996093c8.585937 3.058593 17.820312 4.738281 27.445312 4.738281 2.699219 0 5.367188-.140625 8-.394531zm-8-218c-34.1875 0-62-27.8125-62-62s27.8125-62 62-62 62 27.8125 62 62-27.8125 62-62 62zm0 0" data-original="#000000" class="" style="fill:#000000"/><path d="m445 45.792969h-28.277344c-5.523437 0-10 4.476562-10 10 0 5.523437 4.476563 10 10 10h13.941406l-14.335937 38.960937c-1.90625 5.183594.75 10.929688 5.933594 12.835938 1.136719.421875 2.304687.621094 3.453125.621094 4.070312 0 7.894531-2.507813 9.382812-6.550782l19.289063-52.414062c1.128906-3.066406.6875-6.492188-1.1875-9.171875-1.867188-2.683594-4.929688-4.28125-8.199219-4.28125zm0 0" data-original="#000000" class="" style="fill:#000000"/></g> </svg>
