<svg height="512pt" viewBox="0 0 512 512" width="512pt" xmlns="http://www.w3.org/2000/svg"><path d="m512 256c0 141.386719-114.613281 256-256 256s-256-114.613281-256-256 114.613281-256 256-256 256 114.613281 256 256zm0 0" fill="#60b2fc"/><path d="m277.902344 511.058594c131.128906-11.113282 234.097656-121.050782 234.097656-255.058594 0-6.773438-.269531-13.484375-.785156-20.128906l-111.214844-111.214844-288 203.625 43 42.1875-.8125 16.875zm0 0" fill="#3965cc"/><path d="m400 203.972656v82.121094l-177.75 33.75v-165.375zm0 0" fill="#a3fdf6"/><path d="m256 158.074219v161.769531l-144-33.75v-82.121094zm0 0" fill="#dbfffa"/><path d="m383.125 187.097656v82.121094h-127.125l-33.75-131.625zm0 0" fill="#dbfffa"/><path d="m256 141.199219v128.019531h-127.125v-82.121094zm0 0" fill="#fff"/><path d="m315.625 370.46875-70.875 11.25v-64.6875h45.5625v28.125c0 13.921875 11.390625 25.3125 25.3125 25.3125zm0 0" fill="#70a2aa"/><path d="m256 317.03125v64.6875l-59.625-11.25c13.921875 0 25.3125-11.390625 25.3125-25.3125v-28.125zm0 0" fill="#a0c1c6"/><path d="m256 286.09375-33.75 21.09375 33.75 21.09375h144v-42.1875zm0 0" fill="#116371"/><path d="m112 286.09375h144v42.1875h-144zm0 0" fill="#70a2aa"/><path d="m400 124.65625h-72l-36 31.503906-36-31.503906h-72l-72 61.542969v17.773437c0 19.886719 16.117188 36 36 36s36-16.113281 36-36h72c0 19.886719 16.117188 36 36 36s36-16.113281 36-36l72-17.773437zm0 0" fill="#ff8151"/><path d="m256 186.199219v17.773437c0 19.886719-16.117188 36-36 36s-36-16.113281-36-36v-17.773437zm0 0" fill="#ff6126"/><path d="m400 186.199219v17.773437c0 19.886719-16.117188 36-36 36s-36-16.113281-36-36v-17.773437zm0 0" fill="#ff6126"/><path d="m112 124.65625h72v61.542969h-72zm0 0" fill="#ffa07d"/><path d="m256 124.65625h72v61.542969h-72zm0 0" fill="#ffa07d"/><path d="m256 370.46875-16.875 8.4375 16.875 8.4375h101.8125v-16.875zm0 0" fill="#116371"/><path d="m154.1875 370.46875h101.8125v16.875h-101.8125zm0 0" fill="#70a2aa"/></svg>