<svg height="512pt" viewBox="0 0 512 512" width="512pt" xmlns="http://www.w3.org/2000/svg"><path d="m512 256c0 141.386719-114.613281 256-256 256s-256-114.613281-256-256 114.613281-256 256-256 256 114.613281 256 256zm0 0" fill="#ff6"/><path d="m512 256c0-8.082031-.394531-16.070312-1.125-23.957031l-135.375-135.375-239 318.667969 95.542969 95.539062c7.886719.730469 15.875 1.125 23.957031 1.125 141.386719 0 256-114.613281 256-256zm0 0" fill="#ffd15e"/><path d="m237.328125 146.089844v238.125l138.171875-24.898438v-174.886718zm0 0" fill="#a3fdf6"/><path d="m136.5 184.429688v174.886718l119.5 24.898438v-238.125zm0 0" fill="#d7faf5"/><path d="m212.433594 164.761719 43.566406 175.882812h100.828125v-175.882812zm0 0" fill="#dbfffa"/><path d="m155.171875 164.761719h100.828125v175.882812h-100.828125zm0 0" fill="#fff"/><path d="m295.832031 96.667969h-79.667969l-79.664062 68.09375v19.667969c0 22.003906 17.832031 39.835937 39.832031 39.835937 22.003907 0 39.832031-17.832031 39.832031-39.835937h79.667969c0 22.003906 17.832031 39.835937 39.832031 39.835937 22.003907 0 39.835938-17.832031 39.835938-39.835937v-19.667969zm0 0" fill="#ff8151"/><path d="m295.832031 164.761719v19.667969c0 22.003906-17.832031 39.835937-39.832031 39.835937s-39.832031-17.832031-39.832031-39.835937v-19.667969zm0 0" fill="#ff6126"/><path d="m295.832031 96.667969h79.667969v68.09375h-79.667969zm0 0" fill="#ffa07d"/><path d="m136.5 96.667969h79.667969v68.09375h-79.667969zm0 0" fill="#ffa07d"/><path d="m256 359.316406-28.007812 28.007813 28.007812 28.007812h119.5v-56.015625zm0 0" fill="#093239"/><path d="m136.5 359.316406h119.5v56.019532h-119.5zm0 0" fill="#116371"/><path d="m256 377.988281-12.449219 9.335938 12.449219 9.335937h18.671875v-18.671875zm0 0" fill="#116371"/><path d="m237.328125 377.988281h18.671875v18.671875h-18.671875zm0 0" fill="#70a2aa"/></svg>