<?xml version="1.0" encoding="iso-8859-1"?>
<!-- Generator: Adobe Illustrator 19.0.0, SVG Export Plug-In . SVG Version: 6.00 Build 0)  -->
<svg version="1.1" id="Capa_1" xmlns="http://www.w3.org/2000/svg" xmlns:xlink="http://www.w3.org/1999/xlink" x="0px" y="0px"
	 viewBox="0 0 512.001 512.001" style="enable-background:new 0 0 512.001 512.001;" xml:space="preserve">
<g>
	<path style="fill:#8392A5;" d="M396.215,11.609L379.6,1.91l-0.047,0.028c-3.409-2.243-7.944-2.743-11.982-0.412l-277.3,160.076
		c-13.587,7.843-21.957,22.34-21.957,38.029v247.015c0,4.542,2.553,8.17,6.056,10.048l-0.001,0.04l17.918,10.329
		c0.031,0.018,0.061,0.035,0.091,0.053l0.203,0.117l0.011-0.026c3.298,1.799,7.456,2.037,11.175-0.109l277.296-160.019
		c13.59-7.842,21.963-22.341,21.963-38.032V21.976C403.025,17.122,400.092,13.35,396.215,11.609z"/>
	<path style="fill:#8392A5;" d="M344.25,427.708l-44.687-25.8V265.75l-116.866,65.542l-13.442-4.617v142.9
		c0,4.63,2.511,8.896,6.559,11.144l4.635,2.573l41.222,23.8c11.378,6.569,25.403,6.543,36.757-0.068l85.853-49.993
		c3.629-2.113,5.128-5.987,4.65-9.636l0.159-0.091v-11.227l0,0C349.085,432.82,347.47,429.568,344.25,427.708z"/>
</g>
<path style="fill:#C8CED6;" d="M299.563,265.75v136.158l44.687,25.8c6.44,3.718,6.457,13.007,0.031,16.749l-85.853,49.993
	c-11.354,6.612-25.378,6.638-36.757,0.068l-41.222-23.8V332.554L299.563,265.75z"/>
<g>
	<path style="fill:#E8EDEF;" d="M258.428,494.451l85.853-49.993c6.426-3.742,6.409-13.031-0.031-16.749l-44.687-25.8L180.449,470.72
		l41.222,23.8C233.05,501.088,247.075,501.062,258.428,494.451z"/>
	<path style="fill:#E8EDEF;" d="M86.61,457.189V210.174c0-15.688,8.37-30.185,21.957-38.029l277.3-160.076
		c7.626-4.402,17.158,1.101,17.158,9.907v247.069c0,15.691-8.373,30.189-21.963,38.032L103.766,467.096
		C96.14,471.497,86.61,465.993,86.61,457.189z"/>
</g>
<polygon style="fill:#33AEFF;" points="97.065,196.921 97.065,433.471 392.573,262.999 392.573,26.309 "/>
<g style="opacity:0.2;">
	<polygon style="fill:#FFFFFF;" points="342.01,55.502 234.796,354.017 380.505,269.961 392.573,236.361 392.573,26.309 	"/>
</g>
<g style="opacity:0.2;">
	<polygon style="fill:#FFFFFF;" points="280.471,91.031 152.94,164.661 97.065,320.232 97.065,433.471 173.27,389.51 	"/>
</g>
<g>
	<path style="fill:#AE392E;" d="M146.785,288.673v29.573c0,17.663,19.129,28.695,34.417,19.849l0,0
		c15.538-8.991,25.106-25.581,25.106-43.533v-40.526L146.785,288.673z"/>
	<path style="fill:#AE392E;" d="M265.899,219.496v29.574c0,17.663,19.129,28.695,34.417,19.849l0,0
		c15.538-8.99,25.106-25.581,25.106-43.532V184.86L265.899,219.496z"/>
	<path style="fill:#AE392E;" d="M385.042,150.245v29.573c0,17.663,19.129,28.695,34.417,19.849l0,0
		c15.538-8.991,24.227-25.016,24.227-42.967v-40.527L385.042,150.245z"/>
</g>
<path style="fill:#F43834;" d="M443.64,116.201l-49.674-91.948L97.065,196.89l0.002,0.003l-0.002-0.003v62.844l49.715,28.929
	l0.005,0.009v29.573c0,17.663,19.129,28.695,34.417,19.849c15.538-8.991,25.106-25.581,25.106-43.533v-40.45l59.591-34.6v29.557
	c0,17.663,19.129,28.695,34.417,19.849c15.538-8.99,25.106-25.581,25.106-43.532v-40.434l59.62-34.617v29.483
	c0,17.663,19.129,28.695,34.417,19.849c15.538-8.99,24.227-25.016,24.227-42.967v-40.527L443.64,116.201z"/>
<g>
	<polygon style="fill:#C40041;" points="146.785,288.673 97.065,259.735 97.065,196.89 	"/>
	<path style="fill:#C40041;" d="M146.785,288.673v29.573c0,17.663,19.129,28.695,34.417,19.849l0,0
		c15.538-8.991,25.106-25.581,25.106-43.533v-40.526L146.785,288.673z"/>
	<path style="fill:#C40041;" d="M265.899,219.496v29.574c0,17.663,19.129,28.695,34.417,19.849l0,0
		c15.538-8.99,25.106-25.581,25.106-43.532V184.86L265.899,219.496z"/>
	<path style="fill:#C40041;" d="M385.042,150.245v29.573c0,17.663,19.129,28.695,34.417,19.849l0,0
		c15.538-8.991,24.227-25.016,24.227-42.967v-40.527L385.042,150.245z"/>
</g>
<g>
	<path style="fill:#E3E3E3;" d="M215.232,128.056l-59.523,34.636l50.697,91.355v29.574c0,17.663,19.129,28.695,34.417,19.849l0,0
		c15.538-8.99,25.106-25.581,25.106-43.532v-40.526l-0.058,0.034L215.232,128.056z"/>
	<path style="fill:#E3E3E3;" d="M385.042,150.234l-50.697-91.355L274.852,93.43l50.667,91.441v29.573
		c0,17.663,19.129,28.695,34.417,19.849c15.538-8.991,25.106-25.581,25.106-43.533L385.042,150.234L385.042,150.234z"/>
</g>
<g>
	<path style="fill:#C8CED6;" d="M206.405,254.047v29.574c0,17.663,19.129,28.695,34.417,19.849v-0.001
		c15.538-8.99,25.106-25.581,25.106-43.532v-40.526L206.405,254.047z"/>
	<path style="fill:#C8CED6;" d="M325.519,184.871v29.573c0,17.663,19.129,28.695,34.417,19.849l0,0
		c15.538-8.991,25.106-25.581,25.106-43.533v-40.526L325.519,184.871z"/>
	<path style="fill:#C8CED6;" d="M274.996,349.345c0,6.677-4.06,14.434-9.067,17.325c-5.008,2.891-9.067-0.178-9.067-6.855
		s4.06-14.434,9.067-17.325C270.936,339.599,274.996,342.668,274.996,349.345z"/>
</g>
<g>
</g>
<g>
</g>
<g>
</g>
<g>
</g>
<g>
</g>
<g>
</g>
<g>
</g>
<g>
</g>
<g>
</g>
<g>
</g>
<g>
</g>
<g>
</g>
<g>
</g>
<g>
</g>
<g>
</g>
</svg>
