<svg height="464pt" viewBox="-31 0 463 464" width="464pt" xmlns="http://www.w3.org/2000/svg"><path d="m80.5 112h-16c-35.347656 0-64 28.652344-64 64v144c0 35.347656 28.652344 64 64 64h272c35.347656 0 64-28.652344 64-64v-144c0-35.347656-28.652344-64-64-64h-16" fill="#c5dddc"/><path d="m128.5 288c-53.019531 0-96-42.980469-96-96v-71.367188c-19.792969 11.410157-31.996094 32.519532-32 55.367188v144c0 35.347656 28.652344 64 64 64h272c35.347656 0 64-28.652344 64-64v-32zm0 0" fill="#88d3d1"/><path d="m120.5 432h160c17.671875 0 32 14.328125 32 32h-224c0-17.671875 14.328125-32 32-32zm0 0" fill="#33b1a2"/><path d="m120.5 432c-17.671875 0-32 14.328125-32 32h107.550781l65.785157-32zm0 0" fill="#2e9989"/><path d="m264.5 432h-128l24-48h80zm0 0" fill="#33b1a2"/><path d="m136.5 432 24-48h80zm0 0" fill="#2e9989"/><path d="m.5 320h400c0 35.347656-28.652344 64-64 64h-272c-35.347656 0-64-28.652344-64-64zm0 0" fill="#33b1a2"/><g fill="#fd0"><path d="m104.5 360h-40c-4.417969 0-8-3.582031-8-8s3.582031-8 8-8h40c4.417969 0 8 3.582031 8 8s-3.582031 8-8 8zm0 0"/><path d="m144.5 352c0 4.417969-3.582031 8-8 8s-8-3.582031-8-8 3.582031-8 8-8 8 3.582031 8 8zm0 0"/><path d="m176.5 352c0 4.417969-3.582031 8-8 8s-8-3.582031-8-8 3.582031-8 8-8 8 3.582031 8 8zm0 0"/><path d="m80.5 80h240v176h-240zm0 0"/></g><path d="m208.5 232c-57.4375 0-104-46.5625-104-104v-48h-24v176h240v-24zm0 0" fill="#ffac0d"/><path d="m272.5 104h-192v24c0 13.253906 10.746094 24 24 24s24-10.746094 24-24c0 13.253906 10.746094 24 24 24s24-10.746094 24-24c0 13.253906 10.746094 24 24 24s24-10.746094 24-24c0 13.253906 10.746094 24 24 24s24-10.746094 24-24c0 13.253906 10.746094 24 24 24s24-10.746094 24-24v-24zm0 0" fill="#ffac0d"/><path d="m72.5 256h256c8.835938 0 16 7.164062 16 16s-7.164062 16-16 16h-256c-8.835938 0-16-7.164062-16-16s7.164062-16 16-16zm0 0" fill="#ee1442"/><path d="m152.5 160c17.671875 0 32 14.328125 32 32v64h-64v-64c0-17.671875 14.328125-32 32-32zm0 0" fill="#33b1a2"/><path d="m184.5 208h-24c-4.417969 0-8 3.582031-8 8s3.582031 8 8 8h24zm0 0" fill="#ee1442"/><path d="m224.5 160h48c4.417969 0 8 3.582031 8 8v32c0 4.417969-3.582031 8-8 8h-48c-4.417969 0-8-3.582031-8-8v-32c0-4.417969 3.582031-8 8-8zm0 0" fill="#88d3d1"/><path d="m80.5 80h48v24c0 13.253906-10.746094 24-24 24s-24-10.746094-24-24zm0 0" fill="#ee1442"/><path d="m128.5 80h48v24c0 13.253906-10.746094 24-24 24s-24-10.746094-24-24zm0 0" fill="#88d3d1"/><path d="m176.5 80h48v24c0 13.253906-10.746094 24-24 24s-24-10.746094-24-24zm0 0" fill="#ee1442"/><path d="m224.5 80h48v24c0 13.253906-10.746094 24-24 24s-24-10.746094-24-24zm0 0" fill="#88d3d1"/><path d="m272.5 80h48v24c0 13.253906-10.746094 24-24 24s-24-10.746094-24-24zm0 0" fill="#ee1442"/><path d="m80.5 80h48v16h-48zm0 0" fill="#a10022"/><path d="m128.5 80h48v16h-48zm0 0" fill="#33b1a2"/><path d="m176.5 80h48v16h-48zm0 0" fill="#a10022"/><path d="m224.5 80h48v16h-48zm0 0" fill="#33b1a2"/><path d="m272.5 80h48v16h-48zm0 0" fill="#a10022"/><path d="m64.5 48h272c4.417969 0 8 3.582031 8 8v16c0 4.417969-3.582031 8-8 8h-272c-4.417969 0-8-3.582031-8-8v-16c0-4.417969 3.582031-8 8-8zm0 0" fill="#33b1a2"/><path d="m112.5 0h176c17.671875 0 32 14.328125 32 32v16h-240v-16c0-17.671875 14.328125-32 32-32zm0 0" fill="#fd0"/><path d="m288.5 0h-176c-12.578125.015625-23.976562 7.402344-29.121094 18.878906 4.117188-1.886718 8.59375-2.867187 13.121094-2.878906h176c17.671875 0 32 14.328125 32 32h16v-16c0-17.671875-14.328125-32-32-32zm0 0" fill="#ffee80"/></svg>