<svg viewBox="1 1 511.99998 511.99998" xmlns="http://www.w3.org/2000/svg"><path d="m512 256c0 141.386719-114.613281 256-256 256s-256-114.613281-256-256 114.613281-256 256-256 256 114.613281 256 256zm0 0" fill="#476787"/><path d="m232.492188 430.609375h47.015624v61.121094h-47.015624zm0 0" fill="#3b3b3b"/><path d="m503.828125 86.699219v233.675781c-4.910156 19.019531-11.972656 37.167969-20.898437 54.199219-8.316407 15.902343-18.261719 30.824219-29.609376 44.535156-6.0625 7.324219-12.519531 14.304687-19.34375 20.898437h-355.953124c-6.824219-6.59375-13.28125-13.574218-19.34375-20.898437-11.347657-13.710937-21.292969-28.632813-29.609376-44.535156-8.925781-17.03125-15.988281-35.179688-20.898437-54.199219v-233.675781c0-10.015625 8.117187-18.132813 18.128906-18.132813h459.398438c10.011719 0 18.128906 8.117188 18.128906 18.132813zm0 0" fill="#4a4a4a"/><path d="m482.929688 89.464844v285.109375c-8.316407 15.902343-18.261719 30.824219-29.609376 44.535156h-394.640624c-11.347657-13.710937-21.292969-28.632813-29.609376-44.535156v-285.109375zm0 0" fill="#ffd861"/><path d="m373.886719 483.296875c-35.289063 18.335937-75.371094 28.703125-117.886719 28.703125s-82.597656-10.367188-117.886719-28.703125c28.453125-5.390625 70.71875-8.808594 117.886719-8.808594 47.175781 0 89.433594 3.417969 117.886719 8.808594zm0 0" fill="#4a4a4a"/><path d="m458.304688 286.167969c0 58.859375-47.714844 106.574219-106.574219 106.574219s-106.574219-47.714844-106.574219-106.574219 47.714844-106.574219 106.574219-106.574219 106.574219 47.714844 106.574219 106.574219zm0 0" fill="#476787"/><path d="m367.09375 233.464844 8.609375 30.308594c.558594 1.972656 2.058594 3.542968 4 4.203124l29.847656 10.085938c4.894531 1.65625 5.769531 8.207031 1.476563 11.085938l-26.164063 17.554687c-1.703125 1.140625-2.734375 3.050781-2.757812 5.101563l-.371094 31.503906c-.0625 5.167968-6.019531 8.023437-10.085937 4.832031l-24.78125-19.457031c-1.613282-1.269532-3.746094-1.660156-5.707032-1.046875l-30.074218 9.378906c-4.933594 1.539063-9.492188-3.246094-7.710938-8.097656l10.847656-29.578125c.707032-1.925782.417969-4.078125-.769531-5.753906l-18.214844-25.703126c-2.988281-4.214843.15625-10.027343 5.320313-9.835937l31.484375 1.175781c2.050781.078125 4.007812-.859375 5.230469-2.503906l18.820312-25.269531c3.085938-4.148438 9.585938-2.953125 11 2.015625zm0 0" fill="#fff"/><path d="m294.664062 250.011719c0-24.933594 22.570313-56.164063 10.921876-76.300781-12.019532-20.773438-50.757813-16.679688-71.53125-28.695313-20.132813-11.652344-35.664063-47.558594-60.597657-47.558594-24.9375 0-40.464843 35.90625-60.601562 47.558594-20.773438 12.015625-59.511719 7.925781-71.53125 28.695313-11.648438 20.136718 10.921875 51.363281 10.921875 76.300781 0 24.933593-22.570313 56.164062-10.921875 76.300781 12.019531 20.773438 50.757812 16.679688 71.53125 28.695312 20.132812 11.652344 35.664062 47.558594 60.601562 47.558594 24.933594 0 40.460938-35.90625 60.597657-47.558594 20.773437-12.019531 59.511718-7.925781 71.53125-28.695312 11.648437-20.136719-10.921876-51.363281-10.921876-76.300781zm0 0" fill="#ff7591"/><g fill="#fff"><path d="m130.863281 311.628906c-10.113281-10.117187-28.660156 14.636719-44.644531-1.347656-10.046875-10.050781-4.855469-22.121094 2.898438-29.878906 3.980468-3.976563 13.757812-11.867188 18.210937-7.417969 1.550781 1.550781 3.574219 5.734375 1.148437 8.160156-2.09375 2.089844-6.207031 1.082031-11.871093 6.746094-4.855469 4.855469-5.664063 9.574219-2.429688 12.8125 8.363281 8.363281 27.113281-16.183594 44.582031 1.28125 9.640626 9.644531 7.886719 21.378906-1.417968 30.6875-8.835938 8.835937-20.03125 11.128906-23.941406 7.214844-1.890626-1.886719-2.964844-6.472657-.875-8.5625 2.761718-2.765625 9.777343.605469 16.65625-6.273438 4.046874-4.046875 5.730468-9.375 1.683593-13.421875zm0 0"/><path d="m152.378906 309.132812c-.132812-.136718-.335937-.472656-.539062-.808593l-29.402344-55.4375c-1.417969-2.632813.132812-6.070313 2.628906-8.566407 2.5625-2.5625 6.003906-4.113281 8.632813-2.695312l55.4375 29.402344c.335937.203125.605469.335937.808593.539062 2.089844 2.09375.472657 6.8125-1.886718 9.171875-1.484375 1.484375-3.105469 2.160157-4.722656 1.21875l-11.53125-6.410156-15.445313 15.445313 6.40625 11.53125c.945313 1.621093.269531 3.238281-1.214844 4.722656-2.359375 2.359375-7.011719 4.042968-9.171875 1.886718zm10.660156-38.578124-26.574218-14.835938 14.839844 26.570312zm0 0"/><path d="m202.761719 266.035156c-1.953125 1.953125-4.785157 2.898438-6.605469 1.078125l-43.839844-43.835937c-1.890625-1.890625-.539062-4.855469 1.6875-7.082032 2.15625-2.160156 5.191406-3.574218 7.078125-1.6875l38.914063 38.914063 16.457031-16.457031c1.753906-1.753906 4.519531-.738282 6.472656 1.214844 1.890625 1.890624 2.96875 4.722656 1.214844 6.476562zm0 0"/><path d="m212.882812 199.667969 10.25-10.25c1.753907-1.753907 4.453126-1.078125 6.273438.742187 1.550781 1.550782 2.496094 4.25.605469 6.136719l-10.25 10.253906 13.554687 13.554688 19.085938-19.085938c1.753906-1.753906 4.585937-.945312 6.679687 1.144531 1.820313 1.820313 2.898438 4.65625 1.011719 6.542969l-24.011719 24.007813c-1.953125 1.957031-4.789062 2.902344-6.609375 1.078125l-43.769531-43.769531c-1.820313-1.820313-.875-4.652344 1.078125-6.609376l24.011719-24.007812c1.886719-1.890625 4.71875-.808594 6.539062 1.011719 2.09375 2.089843 2.902344 4.921875 1.148438 6.675781l-19.085938 19.085938zm0 0"/></g><path d="m495.917969 141.980469c0 58.859375-47.714844 106.574219-106.574219 106.574219s-106.574219-47.714844-106.574219-106.574219 47.714844-106.578125 106.574219-106.578125 106.574219 47.71875 106.574219 106.578125zm0 0" fill="#66ccb5"/><path d="m329.910156 124.6875v-22.371094c0-15.597656 10.242188-21.269531 23.632813-21.269531 13.234375 0 23.636719 5.671875 23.636719 21.269531v22.371094c0 15.597656-10.402344 21.269531-23.636719 21.269531-13.390625.003907-23.632813-5.671875-23.632813-21.269531zm31.511719-22.371094c0-5.199218-2.992187-7.5625-7.878906-7.5625-4.882813 0-7.71875 2.363282-7.71875 7.5625v22.371094c0 5.199219 2.835937 7.5625 7.71875 7.5625 4.886719 0 7.878906-2.363281 7.878906-7.5625zm64.597656-19.378906c0 .945312-.15625 2.046875-.628906 2.992188l-55.460937 113.597656c-1.101563 2.363281-4.09375 3.941406-7.089844 3.941406-5.355469 0-8.820313-4.414062-8.820313-8.351562 0-.945313.3125-2.046876.785157-2.992188l55.304687-113.601562c1.257813-2.675782 3.78125-3.9375 6.617187-3.9375 4.410157 0 9.292969 3.308593 9.292969 8.351562zm-23.789062 92.484375v-22.371094c0-15.601562 10.238281-21.269531 23.632812-21.269531 13.234375 0 23.632813 5.667969 23.632813 21.269531v22.371094c0 15.597656-10.398438 21.269531-23.632813 21.269531-13.394531 0-23.632812-5.671875-23.632812-21.269531zm31.511719-22.371094c0-5.199219-2.996094-7.5625-7.878907-7.5625-4.886719 0-7.722656 2.363281-7.722656 7.5625v22.371094c0 5.199219 2.835937 7.5625 7.722656 7.5625 4.882813 0 7.878907-2.363281 7.878907-7.5625zm0 0" fill="#fff"/></svg>