<svg height="512pt" viewBox="0 0 512 512" width="512pt" xmlns="http://www.w3.org/2000/svg"><path d="m512 256c0 102.941406-60.761719 191.695312-148.375 232.34375-17.0625 7.921875-35.140625 14.011719-53.992188 18.023438-6.183593 1.316406-12.464843 2.414062-18.804687 3.28125-11.390625 1.546874-23.011719 2.351562-34.828125 2.351562-141.386719 0-256-114.613281-256-256s114.613281-256 256-256 256 114.613281 256 256zm0 0" fill="#40c4ad"/><path d="m228.832031 137.164062c22.988281-59.558593 62.632813-141.292968 100.746094-126.433593s2.476563 33.4375 38.113281 47.019531c35.636719 13.585938 64.375-39.183594 93.109375-10.449219 28.734375 28.738281-26.644531 79.9375-8.359375 98.222657 18.285156 18.285156 59.554688 2.089843 59.554688 32.390624 0 30.300782-44.925782 28.214844-44.925782 54.335938s38.660157 34.480469 27.6875 53.8125c-10.96875 19.328125-185.589843 44.8125-185.589843 44.8125l-84.691407 38.078125-50.445312-4.867187" fill="#f26065"/><path d="m293.640625 166.980469v-27.066407c0-18.871093 12.386719-25.734374 28.589844-25.734374 16.011719 0 28.589843 6.863281 28.589843 25.734374v27.066407c0 18.867187-12.578124 25.730469-28.589843 25.730469-16.203125 0-28.589844-6.859376-28.589844-25.730469zm38.121094-27.066407c0-6.292968-3.621094-9.148437-9.53125-9.148437-5.910157 0-9.339844 2.855469-9.339844 9.148437v27.066407c0 6.289062 3.429687 9.148437 9.339844 9.148437 5.910156 0 9.53125-2.859375 9.53125-9.148437zm78.148437-23.445312c0 1.144531-.191406 2.476562-.761718 3.621094l-67.09375 137.429687c-1.335938 2.859375-4.957032 4.765625-8.578126 4.765625-6.480468 0-10.675781-5.339844-10.675781-10.101562 0-1.144532.382813-2.480469.953125-3.625l66.902344-137.425782c1.527344-3.242187 4.578125-4.765624 8.007812-4.765624 5.335938 0 11.246094 4 11.246094 10.101562zm-28.78125 111.886719v-27.066407c0-18.871093 12.390625-25.734374 28.589844-25.734374 16.011719 0 28.59375 6.863281 28.59375 25.734374v27.066407c0 18.871093-12.582031 25.730469-28.59375 25.730469-16.199219 0-28.589844-6.859376-28.589844-25.730469zm38.121094-27.066407c0-6.289062-3.621094-9.148437-9.53125-9.148437-5.90625 0-9.339844 2.859375-9.339844 9.148437v27.066407c0 6.289062 3.433594 9.148437 9.339844 9.148437 5.910156 0 9.53125-2.859375 9.53125-9.148437zm0 0" fill="#f2f2f2"/><path d="m306.90625 449.578125v57.355469c-16.457031 3.320312-33.476562 5.066406-50.90625 5.066406-79.015625 0-149.660156-35.796875-196.617188-92.054688 9.925782-30.34375 34.710938-53.960937 65.765626-62.265624 1.484374-.398438 2.976562-.761719 4.492187-1.085938 4.03125-.878906 8.171875-1.484375 12.382813-1.828125 2.570312-.210937 5.160156-.316406 7.785156-.316406h61.949218c6.929688 0 13.679688.734375 20.179688 2.144531.375.070312.75.15625 1.117188.238281 1.097656.25 2.195312.523438 3.269531.816407.03125.007812.050781.007812.082031.019531 10.710938 2.863281 20.679688 7.554687 29.542969 13.710937 24.75 17.175782 40.957031 45.796875 40.957031 78.199219zm0 0" fill="#349cdd"/><path d="m236.636719 356.59375-.230469 1.074219-32.054688 149.109375c-.378906-.074219-.742187-.160156-1.109374-.230469-3.382813-.703125-6.738282-1.472656-10.0625-2.320313-9.414063-2.371093-18.617188-5.265624-27.574219-8.652343-1.359375-.511719-2.707031-1.035157-4.054688-1.566407-2.621093-1.046874-5.222656-2.121093-7.792969-3.238281l-28.609374-133.089843-.230469-1.085938zm0 0" fill="#afe4ff"/><path d="m206.324219 388.773438-25.535157 40.960937-25.542968-40.960937" fill="#f26065"/><path d="m203.242188 506.546875c-3.382813-.703125-6.738282-1.472656-10.0625-2.320313-9.414063-2.371093-18.617188-5.265624-27.574219-8.652343-1.359375-.511719-2.707031-1.035157-4.054688-1.566407l19.238281-74.929687zm0 0" fill="#f26065"/><path d="m180.777344 393.394531-42.828125 23.800781-13.027344-60.601562 26.609375-15.675781" fill="#94bbcc"/><path d="m180.777344 393.394531 42.832031 23.800781 13.027344-60.601562-26.609375-15.675781" fill="#94bbcc"/><path d="m238.257812 438.375h13.582032l-28.835938 70.15625c-1.539062.25-3.085937.492188-4.628906.71875-8.550781-1.253906-16.949219-2.933594-25.195312-5.023438l43.457031-152.859374 29.3125 14.785156zm0 0" fill="#0078aa"/><path d="m165.605469 495.574219c-14.253907-5.371094-27.886719-11.984375-40.792969-19.695313l-15.410156-37.503906h13.582031l-27.691406-72.222656 29.625-13.730469zm0 0" fill="#0078aa"/><path d="m214.726562 317.800781v41.65625c0 15.25-10.054687 28.140625-23.902343 32.421875-3.171875.984375-6.550781 1.515625-10.046875 1.515625-18.742188 0-33.9375-15.191406-33.9375-33.9375v-41.65625zm0 0" fill="#ea9d72"/><path d="m214.726562 356.820312v2.636719c0 15.25-10.054687 28.140625-23.902343 32.421875-12.496094-3.839844-21.894531-14.707031-23.628907-28 2.265626.136719 4.546876.207032 6.835938.207032 6.421875 0 12.71875-.507813 18.851562-1.515626 7.554688-1.214843 14.855469-3.160156 21.84375-5.75zm0 0" fill="#f6b58a"/><path d="m87.675781 249.535156c0 15.710938-11.480469 28.742188-26.507812 31.160156-1.644531.265626-3.332031.402344-5.058594.402344-17.4375 0-31.566406-14.125-31.566406-31.5625s14.128906-31.566406 31.566406-31.566406c1.726563 0 3.414063.140625 5.058594.40625 15.027343 2.417969 26.507812 15.445312 26.507812 31.160156zm0 0" fill="#f6b58a"/><path d="m87.675781 249.535156c0 15.710938-11.480469 28.742188-26.507812 31.160156-2.730469-9.929687-4.191407-20.378906-4.191407-31.160156 0-10.785156 1.457032-21.234375 4.191407-31.160156 15.027343 2.417969 26.507812 15.445312 26.507812 31.160156zm0 0" fill="#ea9d72"/><path d="m67.390625 249.535156c0 6.230469-5.050781 11.28125-11.28125 11.28125s-11.28125-5.050781-11.28125-11.28125c0-6.230468 5.050781-11.28125 11.28125-11.28125s11.28125 5.050782 11.28125 11.28125zm0 0" fill="#ea9d72"/><path d="m273.890625 249.535156c0 15.710938 11.480469 28.742188 26.511719 31.160156 1.640625.265626 3.332031.402344 5.054687.402344 17.4375 0 31.566407-14.125 31.566407-31.5625s-14.128907-31.566406-31.566407-31.566406c-1.722656 0-3.414062.140625-5.054687.40625-15.03125 2.417969-26.511719 15.445312-26.511719 31.160156zm0 0" fill="#f6b58a"/><g fill="#ea9d72"><path d="m273.890625 249.535156c0 15.710938 11.480469 28.742188 26.511719 31.160156 2.730468-9.929687 4.1875-20.378906 4.1875-31.160156 0-10.785156-1.457032-21.234375-4.1875-31.160156-15.03125 2.417969-26.511719 15.445312-26.511719 31.160156zm0 0"/><path d="m298.222656 188.039062v44.722657c0 58.441406-42.691406 106.925781-98.59375 115.921875-.1875.03125-.386718.0625-.574218.09375-5.945313.949218-12.050782 1.421875-18.277344 1.421875-64.855469 0-117.4375-52.582031-117.4375-117.4375v-44.929688c.023437-13.585937 2.351562-26.636719 6.636718-38.765625 16.058594-45.707031 59.613282-78.472656 110.800782-78.472656h.011718c6.214844 0 12.328126.480469 18.285157 1.421875 56.171875 8.777344 99.148437 57.382813 99.148437 116.023437zm0 0"/><path d="m316.738281 249.535156c0 6.230469-5.050781 11.28125-11.28125 11.28125s-11.28125-5.050781-11.28125-11.28125c0-6.230468 5.050781-11.28125 11.28125-11.28125s11.28125 5.050782 11.28125 11.28125zm0 0"/></g><path d="m298.226562 188.039062v44.722657c0 58.441406-42.695312 106.925781-98.597656 115.921875-.1875.03125-.386718.0625-.574218.09375-56.171876-8.777344-99.140626-57.386719-99.140626-116.015625v-44.722657c0-58.640624 42.976563-107.246093 99.160157-116.023437 56.175781 8.777344 99.152343 57.382813 99.152343 116.023437zm0 0" fill="#f6b58a"/><path d="m155.773438 220.695312c0 7.359376-5.964844 13.324219-13.324219 13.324219-7.355469 0-13.320313-5.964843-13.320313-13.324219 0-7.355468 5.964844-13.320312 13.320313-13.320312 7.359375 0 13.324219 5.964844 13.324219 13.320312zm0 0" fill="#444f56"/><path d="m232.441406 220.695312c0 7.359376-5.964844 13.324219-13.320312 13.324219-7.359375 0-13.324219-5.964843-13.324219-13.324219 0-7.355468 5.964844-13.320312 13.324219-13.320312 7.355468 0 13.320312 5.964844 13.320312 13.320312zm0 0" fill="#444f56"/><path d="m153.058594 218.347656c0 3.152344-2.558594 5.707032-5.710938 5.707032s-5.707031-2.554688-5.707031-5.707032 2.554687-5.710937 5.707031-5.710937 5.710938 2.558593 5.710938 5.710937zm0 0" fill="#fff"/><path d="m230.378906 218.347656c0 3.152344-2.554687 5.707032-5.707031 5.707032s-5.710937-2.554688-5.710937-5.707032 2.558593-5.710937 5.710937-5.710937 5.707031 2.558593 5.707031 5.710937zm0 0" fill="#fff"/><path d="m196.386719 256.332031h-29.117188c-3.175781 0-5.746093-2.574219-5.746093-5.746093 0-3.175782 2.570312-5.75 5.746093-5.75h29.117188c3.175781 0 5.746093 2.574218 5.746093 5.75 0 3.171874-2.570312 5.746093-5.746093 5.746093zm0 0" fill="#ea9d72"/><path d="m298.226562 147.453125v45.8125h-21.859374v-35.875l-157.78125-29.320313-33.382813-6.207031v71.402344h-21.859375v-45.8125c0-52.222656 42.328125-94.554687 94.542969-94.554687h45.796875c1.242187 0 2.488281.023437 3.730468.085937 50.480469 1.941406 90.8125 43.488281 90.8125 94.46875zm0 0" fill="#30383d"/><path d="m298.226562 147.453125v45.8125h-21.859374v-35.875l-157.78125-29.320313c8.695312-41.753906 44.921874-73.394531 88.828124-75.085937 50.480469 1.941406 90.8125 43.488281 90.8125 94.46875zm0 0" fill="#444f56"/><path d="m212.480469 275.519531v2.632813c0 6.71875-2.527344 12.839844-6.699219 17.480468-4.785156 5.351563-11.753906 8.714844-19.496094 8.714844h-11.003906c-7.742188 0-14.710938-3.363281-19.507812-8.703125-4.160157-4.640625-6.6875-10.761719-6.6875-17.492187v-2.632813c0-.617187.074218-1.222656.230468-1.796875.792969-3.21875 3.699219-5.601562 7.167969-5.601562h48.597656c3.46875 0 6.375 2.382812 7.167969 5.601562.15625.574219.230469 1.179688.230469 1.796875zm0 0" fill="#444f56"/><path d="m205.78125 295.632812c-4.785156 5.351563-11.753906 8.714844-19.496094 8.714844h-11.003906c-7.742188 0-14.710938-3.363281-19.507812-8.703125 4.796874-5.351562 11.765624-8.714843 19.507812-8.714843h11.003906c7.742188 0 14.710938 3.363281 19.496094 8.703124zm0 0" fill="#f26065"/><path d="m212.25 273.722656c-.792969 3.21875-3.699219 5.597656-7.167969 5.597656h-48.597656c-3.46875 0-6.375-2.378906-7.167969-5.597656.792969-3.21875 3.699219-5.601562 7.167969-5.601562h48.597656c3.46875 0 6.375 2.382812 7.167969 5.601562zm0 0" fill="#fff"/><path d="m278.726562 402.035156-13.53125.605469c-7.660156.335937-14.148437-5.589844-14.492187-13.257813l-1.945313-43.480468c-.082031-1.933594.230469-3.78125.878907-5.484375 1.890625-5.058594 6.644531-8.746094 12.382812-9.007813l13.519531-.605468 2.070313 46.203124zm0 0" fill="#30383d"/><path d="m277.609375 377.007812-12.414063.554688c-7.660156.335938-14.148437-5.589844-14.492187-13.257812l-1.066406-23.886719c1.890625-5.058594 6.644531-8.746094 12.382812-9.007813l13.519531-.605468zm0 0" fill="#444f56"/><path d="m348.394531 463.742188c17.980469-4.121094 31.394531-19.625 32.703125-38.222657l-56.851562-67.089843-17.453125 83.125zm0 0" fill="#30383d"/><path d="m354.960938 492.167969c-13.824219 5.800781-28.253907 10.417969-43.183594 13.730469l-14.972656-61.523438-4.578126-19.792969 46.644532-2.078125 4.578125 19.78125zm0 0" fill="#444f56"/><path d="m343.445312 442.285156-46.648437 2.085938-4.570313-19.785156 14.132813-17.105469 32.515625 15.019531zm0 0" fill="#30383d"/><path d="m457.757812 400.75c15.652344-8.101562 26.011719-24.773438 25.171876-43.535156-.835938-18.761719-12.644532-34.445313-28.957032-41.117188l-35.804687 38.132813zm0 0" fill="#ffe662"/><path d="m482.945312 357.707031c.640626 18.558594-9.671874 35.011719-25.1875 43.042969l-34.765624-40.847656 33.761718 18.332031c15.546875-4.78125 26.316406-10.203125 26.191406-20.527344zm0 0" fill="#ffb525"/><path d="m422.992188 359.902344-4.710938-3.089844 1.375-.832031zm0 0" fill="#2282bf"/><path d="m458.300781 412.882812c-6.96875 8.972657-14.511719 17.480469-22.597656 25.441407l-72.171875-16.925781-5.257812-117.449219 93.769531-31.054688zm0 0" fill="#444f56"/><path d="m458.300781 412.882812c-6.96875 8.972657-14.511719 17.480469-22.597656 25.441407l-72.171875-16.925781-2.089844-46.59375 95.316406 3.574218zm0 0" fill="#30383d"/><path d="m358.277344 303.953125-71.304688 3.1875c-9.464844.425781-16.792968 8.441406-16.371094 17.902344l3.722657 83.171875c.421875 9.460937 8.4375 16.792968 17.898437 16.367187l71.308594-3.1875" fill="#ffe662"/><path d="m306.359375 407.480469c-9.460937.421875-17.476563-6.902344-17.898437-16.367188l-3.722657-83.171875c-.007812-.183594-.007812-.367187-.007812-.546875-8.351563 1.476563-14.515625 8.949219-14.128907 17.648438l3.722657 83.171875c.421875 9.460937 8.4375 16.789062 17.898437 16.367187l71.308594-3.1875-.734375-16.4375zm0 0" fill="#ffb525"/><path d="m288.761719 341.828125c-1.109375-1.015625-1.832031-2.453125-1.902344-4.074219-.148437-3.242187 2.363281-5.988281 5.605469-6.132812l37.566406-1.679688c3.246094-.144531 5.988281 2.363282 6.136719 5.605469.144531 3.242187-2.367188 5.988281-5.609375 6.132813l-37.566406 1.679687c-1.621094.074219-3.121094-.519531-4.230469-1.53125zm0 0" fill="#30383d"/><path d="m289.734375 363.550781c-1.109375-1.015625-1.832031-2.453125-1.90625-4.074219-.144531-3.242187 2.367187-5.988281 5.609375-6.132812l37.566406-1.679688c3.242188-.144531 5.988282 2.363282 6.132813 5.609376.148437 3.238281-2.363281 5.984374-5.605469 6.128906l-37.566406 1.683594c-1.625.070312-3.121094-.519532-4.230469-1.535157zm0 0" fill="#30383d"/><path d="m290.707031 385.273438c-1.113281-1.015626-1.835937-2.453126-1.90625-4.074219-.144531-3.242188 2.367188-5.988281 5.609375-6.132813l37.566406-1.679687c3.242188-.144531 5.984376 2.367187 6.132813 5.609375.144531 3.238281-2.367187 5.984375-5.609375 6.132812l-37.566406 1.679688c-1.621094.070312-3.117188-.519532-4.226563-1.535156zm0 0" fill="#30383d"/><path d="m363.625 487.714844v.628906c-17.0625 7.921875-35.140625 14.011719-53.992188 18.023438-6.183593 1.316406-12.464843 2.414062-18.804687 3.28125v-21.933594c0-19.714844 15.976563-35.691406 35.691406-35.691406h1.421875c3 0 5.914063.363281 8.695313 1.066406 15.503906 3.875 26.988281 17.910156 26.988281 34.625zm0 0" fill="#ea9d72"/><path d="m363.625 487.714844v.628906c-17.0625 7.921875-35.140625 14.011719-53.992188 18.023438v-18.652344c0-16.714844 11.484376-30.75 27.003907-34.625 15.503906 3.875 26.988281 17.910156 26.988281 34.625zm0 0" fill="#f6b58a"/></svg>