<svg height="512pt" viewBox="0 -24 512 512" width="512pt" xmlns="http://www.w3.org/2000/svg"><path d="m512 31.992188v399.601562c0 17.671875-14.320312 31.988281-31.992188 31.988281h-448.015624c-17.671876.003907-31.992188-14.316406-31.992188-31.988281v-399.601562c0-17.675782 14.320312-31.992188 31.992188-31.992188h448.015624c17.675782 0 31.992188 14.316406 31.992188 31.992188zm0 0" fill="#e6e6e6"/><path d="m512 31.992188v38.210937h-512v-38.210937c0-17.675782 14.320312-31.992188 31.992188-31.992188h448.015624c17.675782 0 31.992188 14.316406 31.992188 31.992188zm0 0" fill="#75b2cc"/><path d="m42.363281 45.359375c-7.132812 0-10.476562-9.152344-5.089843-13.796875 2.5625-2.207031 6.425781-2.476562 9.277343-.664062 2.707031 1.722656 4.128907 5.007812 3.492188 8.160156-.726563 3.617187-3.980469 6.300781-7.679688 6.300781zm0 0" fill="#fff"/><path d="m104.097656 45.359375c-3.417968 0-6.503906-2.300781-7.5-5.5625-1.039062-3.386719.425782-7.1875 3.46875-9 5.929688-3.523437 13.453125 2.113281 11.574219 8.816406-.941406 3.351563-4.054687 5.746094-7.542969 5.746094zm0 0" fill="#fff"/><path d="m73.230469 45.359375c-3.339844 0-6.398438-2.207031-7.4375-5.378906-1.042969-3.199219.097656-6.820313 2.832031-8.800781 5.777344-4.171876 13.976562 1.277343 12.199219 8.246093-.875 3.4375-4.035157 5.933594-7.59375 5.933594zm0 0" fill="#fff"/><path d="m38.660156 110.742188h124.769532v303.019531h-124.769532zm0 0" fill="#74dbad"/><path d="m193.617188 110.742188h124.769531v303.019531h-124.769531zm0 0" fill="#e55c5c"/><path d="m348.570312 110.742188h124.769532v303.019531h-124.769532zm0 0" fill="#f4d06b"/><g fill="#fff"><path d="m128.222656 220.703125c0-3.777344-3.625-6.316406-7.015625-6.316406-2.296875 0-4.125 1.089843-5.019531 2.992187l-40.964844 84.144532c-.378906.757812-.597656 1.589843-.597656 2.277343 0 3.050781 2.679688 6.316407 6.667969 6.316407 2.339843 0 4.550781-1.234376 5.367187-2.992188l41.082032-84.144531c.398437-.796875.480468-1.675781.480468-2.277344zm0 0"/><path d="m92.042969 251.632812v-16.574218c0-5.476563-1.722657-9.621094-5.125-12.3125-2.996094-2.375-7.203125-3.574219-12.511719-3.574219-14.578125 0-17.636719 8.640625-17.636719 15.886719v16.574218c0 7.246094 3.058594 15.886719 17.636719 15.886719 5.308594 0 9.515625-1.203125 12.511719-3.574219 3.402343-2.695312 5.125-6.835937 5.125-12.3125zm-23.226563-16.574218c0-3.632813 1.882813-5.472656 5.589844-5.472656 3.734375 0 5.707031 1.894531 5.707031 5.472656v16.574218c0 3.578126-1.972656 5.46875-5.707031 5.46875-3.707031 0-5.589844-1.839843-5.589844-5.46875zm0 0"/><path d="m140.488281 260.324219c-2.996093-2.371094-7.207031-3.570313-12.511719-3.570313-14.578124 0-17.636718 8.636719-17.636718 15.886719v16.570313c0 7.25 3.058594 15.886718 17.636718 15.886718 5.304688 0 9.515626-1.199218 12.511719-3.574218 3.402344-2.691407 5.125-6.832032 5.125-12.3125v-16.574219c0-5.476563-1.722656-9.617188-5.125-12.3125zm-18.101562 12.3125c0-3.628907 1.882812-5.46875 5.589843-5.46875 3.730469 0 5.707032 1.890625 5.707032 5.46875v16.574219c0 3.578124-1.976563 5.472656-5.707032 5.472656-3.707031 0-5.589843-1.84375-5.589843-5.472656zm0 0"/><path d="m436.765625 220.703125c0-3.777344-3.628906-6.316406-7.019531-6.316406-2.292969 0-4.125 1.089843-5.019532 2.992187l-40.964843 84.144532c-.378907.757812-.59375 1.589843-.59375 2.277343 0 3.050781 2.675781 6.316407 6.664062 6.316407 2.339844 0 4.550781-1.234376 5.371094-2.992188l41.078125-84.144531c.398438-.796875.484375-1.675781.484375-2.277344zm0 0"/><path d="m449.027344 260.324219c-2.992188-2.371094-7.203125-3.570313-12.511719-3.570313-14.574219 0-17.636719 8.636719-17.636719 15.886719v16.570313c0 7.25 3.0625 15.886718 17.636719 15.886718 5.308594 0 9.515625-1.199218 12.511719-3.574218 3.402344-2.691407 5.125-6.832032 5.125-12.3125v-16.574219c0-5.476563-1.722656-9.617188-5.125-12.3125zm-18.097656 12.3125c0-3.628907 1.878906-5.46875 5.585937-5.46875 3.734375 0 5.707031 1.890625 5.707031 5.46875v16.574219c0 3.578124-1.972656 5.472656-5.707031 5.472656-3.707031 0-5.585937-1.84375-5.585937-5.472656zm0 0"/><path d="m400.585938 251.632812v-16.574218c0-5.476563-1.726563-9.621094-5.128907-12.3125-2.992187-2.375-7.203125-3.574219-12.511719-3.574219-14.574218 0-17.636718 8.640625-17.636718 15.886719v16.574218c0 7.246094 3.0625 15.886719 17.636718 15.886719 5.308594 0 9.515626-1.203125 12.511719-3.574219 3.402344-2.695312 5.128907-6.835937 5.128907-12.3125zm-23.226563-16.574218c0-3.632813 1.878906-5.472656 5.585937-5.472656 3.734376 0 5.707032 1.894531 5.707032 5.472656v16.574218c0 3.578126-1.972656 5.46875-5.707032 5.46875-3.707031 0-5.585937-1.839843-5.585937-5.46875zm0 0"/></g><path d="m272.160156 324.414062c-7.359375 0-13.207031 2.5-17.875 7.636719-4.019531 4.425781-6.5 10.050781-8.683594 15.007813-2.75 6.242187-4.925781 11.167968-8.960937 11.167968-3.03125 0-6.269531-2.765624-6.269531-10.535156 0-5.226562 1.453125-8.03125 2.621094-10.285156.769531-1.484375 1.433593-2.765625 1.433593-4.328125 0-4.707031-5.878906-6.742187-8.878906-6.742187-3.648437 0-6.320313 2.890624-7.9375 8.585937-1.464844 5.15625-1.578125 11.078125-1.578125 12.769531 0 7.292969 1.796875 13.941406 5.0625 18.726563 3.886719 5.699219 9.816406 8.710937 17.144531 8.710937 14.605469 0 20.039063-11.691406 24.402344-21.089844 3.171875-6.828124 5.910156-12.722656 11.226563-12.722656 5.101562 0 6.910156 5.503906 6.910156 10.214844 0 5.753906-2.722656 9.292969-4.910156 12.132812-1.601563 2.078126-2.984376 3.875-2.984376 6 0 4.214844 5.515626 7.386719 9.089844 7.386719 7.328125 0 14-12.316406 14-25.839843 0-7.839844-2.113281-14.484376-6.113281-19.214844-4.1875-4.960938-10.308594-7.582032-17.699219-7.582032zm0 0" fill="#24465e"/><path d="m221.667969 300.671875 65.074219 19.839844c.425781.109375.867187.21875 1.203124.21875 3.855469 0 6.957032-5.90625 6.957032-10.796875 0-3.046875-1.101563-4.96875-3.1875-5.566406l-13.238282-3.601563v-22.308594l13.238282-3.601562c2.085937-.59375 3.1875-2.519531 3.1875-5.5625 0-4.890625-3.101563-10.796875-6.957032-10.796875-.335937 0-.777343.109375-1.210937.21875l-65.066406 19.945312c-4.164063 1.308594-5.636719 6.746094-5.636719 11.003906 0 4.261719 1.472656 9.699219 5.636719 11.007813zm15.789062-11.007813 27.960938-7.613281v15.230469zm0 0" fill="#24465e"/><path d="m221.8125 251.5h67.839844c2.53125 0 5.25-2.308594 5.25-7.382812v-33.707032c0-2.371094-2.308594-4.929687-7.382813-4.929687-5.070312 0-7.382812 2.554687-7.382812 4.929687v24.191406h-58.324219c-2.371094 0-5.144531 2.214844-5.144531 8.449219 0 6.238281 2.773437 8.449219 5.144531 8.449219zm0 0" fill="#24465e"/><path d="m221.921875 197.953125h67.730469c2.53125 0 5.25-2.308594 5.25-7.382813v-37.972656c0-2.558594-2.25-5.144531-7.277344-5.144531-4.410156 0-7.488281 2.113281-7.488281 5.144531v28.457032h-17.875v-15.871094c0-1.644532-.734375-3.003906-2.121094-3.933594-1.148437-.769531-2.714844-1.210938-4.300781-1.210938-3.296875 0-6.636719 1.765626-6.636719 5.144532v15.867187h-17.765625v-28.453125c0-3.03125-3.082031-5.144531-7.492188-5.144531-5.027343 0-7.277343 2.582031-7.277343 5.144531v37.972656c0 5.074219 2.722656 7.382813 5.253906 7.382813zm0 0" fill="#24465e"/></svg>